<svg width="254" height="243" viewBox="0 0 254 243" fill="none" xmlns="http://www.w3.org/2000/svg">
<path d="M240.136 137.261C248.071 128.208 248.071 114.677 240.136 105.624L232.626 97.0539C228.286 92.1027 226.172 85.5863 226.776 79.0305L227.822 67.6914C228.928 55.7055 220.984 44.7544 209.247 42.0845L198.129 39.5552C191.71 38.0951 186.173 34.0626 182.813 28.4018L177.012 18.626C170.858 8.25748 157.968 4.06373 146.891 8.82695L136.481 13.3036C130.428 15.9067 123.572 15.9067 117.519 13.3036L107.109 8.82695C96.0324 4.06373 83.1416 8.2575 76.9882 18.626L71.2057 28.3695C67.8349 34.0493 62.2724 38.0889 55.8284 39.5369L44.8194 42.0107C33.0519 44.6549 25.0746 55.6217 26.1826 67.6316L27.2259 78.9401C27.8294 85.4811 25.7254 91.9836 21.4047 96.9313L13.8107 105.627C5.90303 114.683 5.91505 128.191 13.8388 137.232L21.3766 145.833C25.7145 150.783 27.8295 157.297 27.2265 163.851L26.1718 175.313C25.0692 187.297 33.0126 198.245 44.7474 200.914L55.871 203.445C62.2898 204.905 67.827 208.937 71.1866 214.598L76.9612 224.329C83.1262 234.717 96.0512 238.904 107.136 234.104L117.496 229.618C123.562 226.992 130.442 226.983 136.514 229.595L146.891 234.057C157.968 238.821 170.858 234.627 177.012 224.258L182.813 214.483C186.173 208.822 191.71 204.789 198.129 203.329L209.248 200.8C220.984 198.13 228.928 187.179 227.822 175.193L226.776 163.854C226.172 157.298 228.286 150.782 232.626 145.83L240.136 137.261Z" fill="#F4DC00"/>
<path fill-rule="evenodd" clip-rule="evenodd" d="M126.847 70C115.848 70 81.6336 92.231 80.6498 94.1987C78.45 98.5984 78.4501 135.996 80.6498 142.596C82.2053 147.263 118.048 171.194 124.647 171.194C133.447 171.194 173.044 149.196 173.044 142.596C173.044 140.973 173.311 137.487 173.647 133.086C174.676 119.596 176.362 97.5163 173.044 94.1987C171.247 92.4012 165.044 88.0336 157.584 83.4958C142.552 90.9794 116.463 104.066 114.98 108.239C114.198 110.439 114.198 122.797 114.198 131.597L103.98 118.397L96.599 122.797C96.599 115.464 96.599 105.198 97.3805 98.5984C97.7981 95.0713 124.9 81.1855 140.422 74.1996C134.974 71.6933 130.064 70 126.847 70Z" fill="white"/>
</svg>
