<svg width="240" height="230" viewBox="0 0 240 230" fill="none" xmlns="http://www.w3.org/2000/svg">
<path d="M233.136 130.761C241.071 121.708 241.071 108.177 233.136 99.1236L225.626 90.5539C221.286 85.6027 219.172 79.0863 219.776 72.5305L220.822 61.1914C221.928 49.2055 213.984 38.2544 202.247 35.5845L191.129 33.0552C184.71 31.5951 179.173 27.5626 175.813 21.9018L170.012 12.126C163.858 1.75748 150.968 -2.43627 139.891 2.32695L129.481 6.80365C123.428 9.40666 116.572 9.40666 110.519 6.80364L100.109 2.32695C89.0324 -2.43627 76.1416 1.7575 69.9882 12.126L64.2057 21.8695C60.8349 27.5493 55.2724 31.5889 48.8284 33.0369L37.8194 35.5107C26.0519 38.1549 18.0746 49.1217 19.1826 61.1316L20.2259 72.4401C20.8294 78.9811 18.7254 85.4836 14.4047 90.4313L6.81066 99.1274C-1.09697 108.183 -1.08495 121.691 6.83877 130.732L14.3766 139.333C18.7145 144.283 20.8295 150.797 20.2265 157.351L19.1718 168.813C18.0692 180.797 26.0126 191.745 37.7474 194.414L48.871 196.945C55.2898 198.405 60.827 202.437 64.1866 208.098L69.9612 217.829C76.1262 228.217 89.0512 232.404 100.136 227.604L110.496 223.118C116.562 220.492 123.442 220.483 129.514 223.095L139.891 227.557C150.968 232.321 163.858 228.127 170.012 217.758L175.813 207.983C179.173 202.322 184.71 198.289 191.129 196.829L202.248 194.3C213.984 191.63 221.928 180.679 220.822 168.693L219.776 157.354C219.172 150.798 221.286 144.282 225.626 139.33L233.136 130.761ZM101.23 171.329C100.52 172.005 99.4266 172.067 98.6453 171.477L51.0062 135.496C50.0263 134.755 49.9386 133.315 50.8213 132.462L70.2495 113.676C71.4766 112.49 73.4451 112.565 74.5783 113.841L95.2247 137.097C96.4577 138.486 98.6435 138.432 99.8068 136.984L157.854 64.7431C158.601 63.8135 159.99 63.74 160.831 64.5857L184.934 88.8261C185.724 89.6215 185.707 90.9116 184.894 91.6849L101.23 171.329Z" fill="#3B82F6"/>
</svg>
